<?xml version="1.0" standalone="no"?><!DOCTYPE svg PUBLIC "-//W3C//DTD SVG 1.1//EN"
  "http://www.w3.org/Graphics/SVG/1.1/DTD/svg11.dtd">
<svg t="1590477736915" class="icon" viewBox="0 0 1024 1024" version="1.1" xmlns="http://www.w3.org/2000/svg"
     p-id="52533" data-spm-anchor-id="a313x.7781069.0.i54" xmlns:xlink="http://www.w3.org/1999/xlink" width="128"
     height="128">
  <defs>
    <style type="text/css"></style>
  </defs>
  <path
    d="M682.666667 955.733333H170.666667c-66.030933 0-102.4-36.369067-102.4-102.4V341.333333c0-66.030933 36.369067-102.4 102.4-102.4h68.266666v-68.266666c0-66.030933 36.369067-102.4 102.4-102.4h512c66.030933 0 102.4 36.369067 102.4 102.4v512c0 66.030933-36.369067 102.4-102.4 102.4h-68.266666v68.266666c0 66.030933-36.369067 102.4-102.4 102.4zM170.666667 273.066667c-47.223467 0-68.266667 21.0432-68.266667 68.266666v512c0 47.223467 21.0432 68.266667 68.266667 68.266667h512c47.223467 0 68.266667-21.0432 68.266666-68.266667v-68.266666H341.333333c-66.030933 0-102.4-36.369067-102.4-102.4V273.066667h-68.266666z m597.333333 477.866666h85.333333c47.223467 0 68.266667-21.0432 68.266667-68.266666V170.666667c0-47.223467-21.0432-68.266667-68.266667-68.266667H341.333333c-47.223467 0-68.266667 21.0432-68.266666 68.266667v512c0 47.223467 21.0432 68.266667 68.266666 68.266666h426.666667z"
    ></path>
  <path
    d="M597.333333 631.466667a34.133333 34.133333 0 0 1-34.133333-34.133334v-136.533333h-136.533333a34.133333 34.133333 0 0 1 0-68.266667h136.533333v-136.533333a34.133333 34.133333 0 0 1 68.266667 0v136.533333h136.533333a34.133333 34.133333 0 0 1 0 68.266667h-136.533333v136.533333a34.133333 34.133333 0 0 1-34.133334 34.133334z"
    ></path>
</svg>
