<?xml version="1.0" standalone="no"?><!DOCTYPE svg PUBLIC "-//W3C//DTD SVG 1.1//EN" "http://www.w3.org/Graphics/SVG/1.1/DTD/svg11.dtd"><svg t="1603072733498" class="icon" viewBox="0 0 1090 1024" version="1.1" xmlns="http://www.w3.org/2000/svg" p-id="34709" xmlns:xlink="http://www.w3.org/1999/xlink" width="68.125" height="64"><defs><style type="text/css"></style></defs><path d="M545.032258 0C244.042323 0 0 229.243871 0 512 0 794.756129 244.042323 1024 545.032258 1024S1090.064516 794.756129 1090.064516 512C1090.064516 229.243871 846.022194 0 545.032258 0zM825.806452 676.698839c0 27.482839-25.269677 50.010839-56.154839 50.010838H320.412903c-30.885161 0-56.154839-22.494968-56.154838-50.010838l0.264258-247.147355 273.771354 133.053935c4.228129 2.014968 9.249032 2.014968 13.477162 0L825.806452 429.419355v247.279484zM545.032258 495.483871L264.258065 349.250065C264.522323 320.611097 289.428645 297.290323 320.148645 297.290323h449.469936c30.686968 0 55.824516 23.25471 56.187871 51.79458L545.032258 495.483871z" p-id="34710" data-spm-anchor-id="a313x.7781069.0.i66" class="selected"></path></svg>
