<?xml version="1.0" standalone="no"?><!DOCTYPE svg PUBLIC "-//W3C//DTD SVG 1.1//EN" "http://www.w3.org/Graphics/SVG/1.1/DTD/svg11.dtd"><svg t="1603071962763" class="icon" viewBox="0 0 1084 1024" version="1.1" xmlns="http://www.w3.org/2000/svg" p-id="33077" xmlns:xlink="http://www.w3.org/1999/xlink" width="67.75" height="64"><defs><style type="text/css"></style></defs><path d="M570.488471 1024c107.821176 0 207.209412-20.720941 295.152941-59.331765 96.557176-44.152471 168.899765-110.411294 218.593882-196.005647h-126.313412a383.518118 383.518118 0 0 1-146.191058 118.66353c-66.680471 29.033412-147.576471 44.212706-241.242353 44.212706-139.083294 0-245.519059-33.129412-320.692706-98.002824C167.454118 761.795765 127.698824 658.251294 127.698824 521.637647c0-124.205176 38.369882-224.918588 116.374588-303.585882C322.138353 137.938824 425.743059 98.002824 553.441882 98.002824c119.265882 0 214.317176 33.129412 285.274353 99.388235 63.849412 60.656941 96.496941 136.553412 96.496941 224.918588 0 84.148706-24.094118 155.949176-70.957176 215.280941-39.755294 51.079529-80.896 77.281882-122.036706 77.281883-22.708706 0-32.647529-9.637647-32.647529-28.973177 0-13.854118 5.662118-44.152471 19.877647-91.075765l97.942588-342.256941h-119.265882l-19.877647 70.354824c-24.094118-64.873412-68.065882-96.617412-130.529883-96.617412-85.112471 0-158.960941 37.285647-219.979294 113.242353-62.403765 74.450824-93.665882 160.045176-93.665882 256.602353 0 62.162824 18.492235 113.242353 58.187294 154.624 39.755294 41.381647 90.834824 62.042353 153.298823 62.042353 68.065882 0 124.867765-30.298353 167.454118-89.690353 8.493176 58.006588 42.586353 86.979765 102.159059 86.979765 79.510588 0 151.853176-40.056471 215.702588-120.048942C1003.339294 607.171765 1036.047059 517.541647 1036.047059 420.924235c0-114.567529-38.309647-211.184941-114.928941-288.466823C833.054118 44.152471 713.788235 0 560.549647 0 390.324706 0 252.626824 51.079529 147.576471 155.949176 48.248471 252.566588 0 374.000941 0 517.541647c0 154.563765 49.694118 278.768941 150.407529 369.844706C251.181176 978.462118 391.710118 1024 570.488471 1024z m-104.990118-314.669176c-31.262118 0-55.416471-9.637647-69.571765-28.912942-15.600941-19.395765-22.708706-45.598118-22.708706-78.727529 0-68.969412 19.877647-129.686588 62.464-183.536941 41.140706-53.790118 89.389176-80.052706 144.745412-80.052706 21.323294 0 39.755294 6.927059 55.356235 23.491765 14.215529 13.793882 22.708706 30.358588 22.708706 52.404705 0 8.312471-5.662118 33.129412-17.046588 71.800471l-28.370823 102.098824a171.068235 171.068235 0 0 1-62.464 88.304941c-28.310588 22.106353-56.741647 33.129412-85.112471 33.129412z" p-id="33078"></path></svg>
