<?xml version="1.0" standalone="no"?><!DOCTYPE svg PUBLIC "-//W3C//DTD SVG 1.1//EN" "http://www.w3.org/Graphics/SVG/1.1/DTD/svg11.dtd"><svg t="1603072050075" class="icon" viewBox="0 0 1024 1024" version="1.1" xmlns="http://www.w3.org/2000/svg" p-id="33910" xmlns:xlink="http://www.w3.org/1999/xlink" width="64" height="64"><defs><style type="text/css"></style></defs><path d="M512 0a512 512 0 0 1 512 512c0 282.773854-229.226146 512-512 512S0 794.773854 0 512 229.226146 0 512 0z m-94.208 647.168h12.288a153.6 153.6 0 0 1-6.144-45.056c0-97.28 91.910244-174.08 204.8-174.08h10.24c-16.384-92.409756-108.294244-161.792-221.184-161.792-122.88 0-212.992 81.92-216.064 186.368a156.921756 156.921756 0 0 0 76.8 141.312c2.048 0-12.288 59.392-12.288 59.392-5.12 16.384 6.144 22.528 20.48 14.336l55.296-32.768c1.148878 1.048976 2.572488 1.748293 4.096 2.048 23.352195 6.456195 47.453659 9.902829 71.68 10.24zM747.52 727.289756a149.753756 149.753756 0 0 0 71.68-124.928c0-88.051512-86.016-159.731512-190.464-159.731512s-190.464 71.929756-190.464 159.993756 86.016 159.744 190.464 159.744a342.528 342.528 0 0 0 79.872-12.288 275.456 275.456 0 0 1 43.008 22.528c14.336 8.192 20.48 2.048 12.288-12.288L747.52 727.289756zM309.248 387.072a28.672 28.672 0 1 1 57.319024-1.523512 28.672 28.672 0 0 1-57.319024 1.523512z m364.544 153.6a25.6 25.6 0 1 1 51.2 0 25.6 25.6 0 0 1-51.2 0z m-135.430244 0a25.6 25.6 0 1 1 51.2 0 25.6 25.6 0 0 1-51.2 0z m-57.081756-153.6a28.16 28.16 0 0 1 14.336-25.6 28.672 28.672 0 1 1-14.336 25.6z" p-id="33911" data-spm-anchor-id="a313x.7781069.0.i64" class="selected"></path></svg>
