<svg t="1590461612021" class="icon" viewBox="0 0 1024 1024" version="1.1" xmlns="http://www.w3.org/2000/svg"
     p-id="32922"  width="128" height="128">
  <path
    d="M929.2 427c-2.5-2.9-5-5.7-7.8-8.4L608.7 105.8c-54.5-54.5-143-54.5-197.5 0L98.4 418.6c-2.7 2.7-5.3 5.5-7.8 8.4-63.2 74.3-5.4 189.1 92.1 189.1h16.4v218.3c0 68.7 55.7 124.3 124.3 124.3h62.2V794.2c0-68.7 55.7-124.3 124.3-124.3 68.7 0 124.3 55.7 124.3 124.3v164.5h62.2c68.7 0 124.3-55.7 124.3-124.3V616.1h16.4c97.5 0 155.3-114.8 92.1-189.1z"
   ></path>
</svg>
