<?xml version="1.0" standalone="no"?><!DOCTYPE svg PUBLIC "-//W3C//DTD SVG 1.1//EN" "http://www.w3.org/Graphics/SVG/1.1/DTD/svg11.dtd"><svg t="1603244939103" class="icon" viewBox="0 0 1024 1024" version="1.1" xmlns="http://www.w3.org/2000/svg" p-id="107376" xmlns:xlink="http://www.w3.org/1999/xlink" width="64" height="64"><defs><style type="text/css"></style></defs><path d="M512 512m-512 0a512 512 0 1 0 1024 0 512 512 0 1 0-1024 0Z" fill="#FEC43C" p-id="107377"></path><path d="M1013.76 408.576C965.632 175.104 759.808 0 512 0 229.376 0 0 229.376 0 512c0 123.904 44.032 236.544 116.736 324.608C203.776 884.736 303.104 911.36 409.6 911.36c301.056 0 550.912-217.088 604.16-502.784z" fill="#FFD73A" p-id="107378"></path><path d="M512 778.24c-134.144 0-245.76-97.28-266.24-225.28-3.072-21.504 13.312-40.96 35.84-40.96h460.8c22.528 0 38.912 19.456 35.84 40.96-20.48 128-132.096 225.28-266.24 225.28z" fill="#873A18" p-id="107379"></path><path d="M742.4 512h-460.8c-22.528 0-38.912 19.456-35.84 40.96 1.024 7.168 2.048 14.336 4.096 21.504h523.264c2.048-7.168 3.072-14.336 4.096-21.504 4.096-21.504-13.312-40.96-34.816-40.96z" fill="#FFFFFF" p-id="107380"></path><path d="M587.776 635.904c-30.72 0-58.368 15.36-75.776 38.912-16.384-23.552-44.032-38.912-75.776-38.912-48.128 0-88.064 36.864-92.16 83.968C390.144 756.736 448.512 778.24 512 778.24c63.488 0 121.856-21.504 167.936-58.368-4.096-47.104-44.032-83.968-92.16-83.968z" fill="#F44444" p-id="107381"></path><path d="M141.312 394.24c33.792 22.528 69.632 38.912 97.28 47.104 16.384 5.12 28.672 7.168 35.84 5.12 18.432-3.072 68.608-41.984 106.496-94.208C406.528 317.44 427.008 276.48 430.08 235.52c3.072-38.912-12.288-76.8-46.08-100.352-22.528-15.36-51.2-22.528-79.872-17.408-35.84 6.144-63.488 28.672-77.824 58.368-16.384-15.36-37.888-26.624-60.416-29.696-39.936-5.12-79.872 12.288-102.4 44.032-23.552 32.768-24.576 73.728-8.192 109.568 16.384 37.888 49.152 69.632 86.016 94.208z" fill="#F44444" p-id="107382"></path><path d="M428.032 203.776c-3.072-15.36-9.216-29.696-17.408-41.984C397.312 278.528 265.216 393.216 230.4 399.36c-20.48 4.096-87.04-17.408-148.48-56.32 58.368 68.608 165.888 107.52 191.488 103.424 34.816-6.144 174.08-131.072 154.624-242.688z" fill="#E82D2D" p-id="107383"></path><path d="M647.168 350.208c23.552 32.768 52.224 61.44 73.728 77.824 13.312 10.24 24.576 16.384 31.744 17.408 18.432 3.072 77.824-16.384 131.072-53.248 35.84-24.576 68.608-56.32 84.992-94.208 16.384-36.864 14.336-77.824-8.192-111.616-15.36-22.528-39.936-38.912-68.608-44.032-34.816-6.144-68.608 6.144-92.16 29.696-10.24-20.48-25.6-37.888-46.08-49.152-34.816-18.432-77.824-15.36-110.592 7.168-32.768 23.552-48.128 62.464-45.056 101.376 4.096 41.984 23.552 83.968 49.152 118.784z" fill="#F44444" p-id="107384"></path><path d="M978.944 268.288c3.072-15.36 2.048-31.744-2.048-46.08C924.672 327.68 762.88 393.216 728.064 387.072c-20.48-4.096-74.752-46.08-117.76-104.448 30.72 84.992 117.76 159.744 143.36 164.864 32.768 5.12 205.824-66.56 225.28-179.2z" fill="#E82D2D" p-id="107385"></path></svg>