<?xml version="1.0" standalone="no"?><!DOCTYPE svg PUBLIC "-//W3C//DTD SVG 1.1//EN" "http://www.w3.org/Graphics/SVG/1.1/DTD/svg11.dtd"><svg t="1603205213393" class="icon" viewBox="0 0 1024 1024" version="1.1" xmlns="http://www.w3.org/2000/svg" p-id="86594" xmlns:xlink="http://www.w3.org/1999/xlink" width="64" height="64"><defs><style type="text/css"></style></defs><path d="M991.744 374.784c0-153.088-124.416-278.016-276.992-278.016-76.288 0-147.456 30.72-198.656 84.48-51.712-53.76-122.88-84.48-198.656-84.48-152.576 0-276.992 124.928-276.992 278.016 0 71.168 26.624 138.24 75.264 189.952 1.024 1.024 1.536 2.048 2.56 3.072l2.56 2.56 1.536 1.536 350.72 336.896c11.264 11.264 26.624 17.408 43.008 17.408s32.256-6.656 44.032-17.92c11.264-10.24 287.232-273.408 350.72-336.384l1.024-1.024-0.512 0.512 2.56-2.56c50.176-52.224 77.824-121.344 77.824-194.048z m-673.792-138.24c-78.336 0-141.824 64-141.824 142.336 0 11.776-9.728 21.504-21.504 21.504-11.776 0-21.504-9.728-21.504-21.504 0-101.888 82.944-184.832 184.32-184.832 11.776 0 21.504 9.728 21.504 21.504 0 11.264-9.216 20.992-20.992 20.992z" fill="#d81e06" p-id="86595"></path></svg>