<?xml version="1.0" standalone="no"?><!DOCTYPE svg PUBLIC "-//W3C//DTD SVG 1.1//EN" "http://www.w3.org/Graphics/SVG/1.1/DTD/svg11.dtd"><svg t="1590461820735" class="icon" viewBox="0 0 1024 1024" version="1.1" xmlns="http://www.w3.org/2000/svg" p-id="37147" data-spm-anchor-id="a313x.7781069.0.i36" xmlns:xlink="http://www.w3.org/1999/xlink" width="24" height="24"><defs><style type="text/css"></style></defs><path d="M543.926857 947.858286c63.433143 0 159.433143-47.579429 159.433143-173.568V382.134857c0-21.412571 3.419429-25.270857 22.710857-29.129143l204.434286-45.001143c14.994286-3.437714 24.868571-15.433143 24.868571-30.427428V116.004571c0-24.009143-19.309714-39.862857-42.88-34.724571L685.348571 130.578286c-29.568 6.418286-45.421714 21.851429-45.421714 47.561143l2.56 476.580571c0 19.712-8.996571 32.548571-26.569143 35.986286l-68.132571 14.573714c-87.424 18.011429-128.146286 63.012571-128.146286 128.585143 0 66.852571 51.858286 113.993143 124.288 113.993143zM97.792 299.428571H480.914286c16.274286 0 29.129143-13.293714 29.129143-29.147428 0-15.853714-12.854857-28.708571-29.129143-28.708572H97.792c-15.872 0-29.147429 12.854857-29.147429 28.708572a29.44 29.44 0 0 0 29.147429 29.147428z m0 152.576H480.914286c16.713143 0 29.129143-13.293714 29.129143-29.568 0-15.872-12.854857-28.288-29.129143-28.288H97.792c-15.872 0-29.147429 12.434286-29.147429 28.288a29.257143 29.257143 0 0 0 29.147429 29.568z m0 152.557715H480.914286c16.713143 0 29.129143-12.854857 29.129143-29.129143 0-15.853714-12.854857-28.708571-29.129143-28.708572H97.792c-15.872 0-29.147429 12.854857-29.147429 28.708572 0 16.274286 12.854857 29.129143 29.147429 29.129143z" p-id="37148" data-spm-anchor-id="a313x.7781069.0.i35" class="" fill="#ffffff"></path></svg>