<?xml version="1.0" standalone="no"?><!DOCTYPE svg PUBLIC "-//W3C//DTD SVG 1.1//EN" "http://www.w3.org/Graphics/SVG/1.1/DTD/svg11.dtd"><svg t="1604109885548" class="icon" viewBox="0 0 1075 1024" version="1.1" xmlns="http://www.w3.org/2000/svg" p-id="10635" xmlns:xlink="http://www.w3.org/1999/xlink" width="67.1875" height="64"><defs><style type="text/css"></style></defs><path d="M1001.886 1001.065c-71.561 0.277-376.756-0.359-457.028-0.359-322.191 0-521.636-220.697-521.636-490.228S242.158 22.491 512.227 22.491c270.081 0 489.019 218.457 489.019 487.986 0 92.008-34.095 199.389-85.298 280.913-75.379 132.747 81.536 109.765 85.938 209.675zM302.655 441.522c-38.559 0-69.856 31.299-69.856 69.862 0 38.637 31.297 69.864 69.856 69.864 38.563 0 69.862-31.227 69.862-69.864-0.002-38.563-31.301-69.862-69.862-69.862z m209.574 0c-38.561 0-69.858 31.299-69.858 69.862 0 38.637 31.299 69.864 69.858 69.864 38.567 0 69.864-31.227 69.864-69.864 0-38.563-31.295-69.862-69.864-69.862z m209.581 0c-38.563 0-69.858 31.299-69.858 69.862 0 38.637 31.297 69.864 69.858 69.864s69.856-31.227 69.856-69.864c-0.002-38.563-31.295-69.862-69.856-69.862z" p-id="10636" data-spm-anchor-id="a313x.7781069.0.i22" class="" fill="#ffffff"></path></svg>