<?xml version="1.0" standalone="no"?><!DOCTYPE svg PUBLIC "-//W3C//DTD SVG 1.1//EN" "http://www.w3.org/Graphics/SVG/1.1/DTD/svg11.dtd"><svg t="1603201344573" class="icon" viewBox="0 0 1024 1024" version="1.1" xmlns="http://www.w3.org/2000/svg" p-id="54812" data-spm-anchor-id="a313x.7781069.0.i88" xmlns:xlink="http://www.w3.org/1999/xlink" width="64" height="64"><defs><style type="text/css"></style></defs><path d="M878.933 588.8c-17.066 0-32-14.933-32-32v-51.2c0-181.333-147.2-328.533-328.533-328.533-179.2 0-326.4 147.2-326.4 328.533v40.533c0 17.067-14.933 32-32 32s-32-14.933-32-32V505.6c0-215.467 177.067-392.533 392.533-392.533C736 113.067 913.067 288 913.067 505.6v51.2c-2.134 17.067-14.934 32-34.134 32z" p-id="54813" data-spm-anchor-id="a313x.7781069.0.i89" class=""></path><path d="M185.6 842.667h-10.667C98.133 825.6 42.667 757.333 42.667 678.4c0-72.533 46.933-136.533 115.2-157.867 19.2-6.4 40.533-2.133 55.466 8.534 17.067 12.8 25.6 32 25.6 51.2v209.066c0 17.067-6.4 32-19.2 42.667-8.533 6.4-21.333 10.667-34.133 10.667zM177.067 582.4c-42.667 12.8-70.4 53.333-70.4 96 0 44.8 27.733 83.2 70.4 96v-192zM851.2 842.667c-12.8 0-23.467-4.267-34.133-12.8-12.8-10.667-19.2-25.6-19.2-42.667V578.133c0-19.2 8.533-36.266 23.466-49.066 14.934-10.667 34.134-14.934 53.334-10.667 70.4 19.2 119.466 85.333 119.466 160 0 78.933-55.466 147.2-132.266 162.133-4.267 2.134-6.4 2.134-10.667 2.134zM861.867 582.4v192c40.533-12.8 70.4-53.333 70.4-96-2.134-42.667-29.867-81.067-70.4-96z" p-id="54814" data-spm-anchor-id="a313x.7781069.0.i87" class=""></path></svg>
