<?xml version="1.0" standalone="no"?><!DOCTYPE svg PUBLIC "-//W3C//DTD SVG 1.1//EN" "http://www.w3.org/Graphics/SVG/1.1/DTD/svg11.dtd"><svg t="1602736422046" class="icon" viewBox="0 0 1024 1024" version="1.1" xmlns="http://www.w3.org/2000/svg" p-id="3740" xmlns:xlink="http://www.w3.org/1999/xlink" width="64" height="64"><defs><style type="text/css"></style></defs><path d="M512 74.666667c241.536 0 437.333333 195.797333 437.333333 437.333333S753.536 949.333333 512 949.333333 74.666667 753.536 74.666667 512 270.464 74.666667 512 74.666667z m0 64C305.813333 138.666667 138.666667 305.813333 138.666667 512S305.813333 885.333333 512 885.333333 885.333333 718.186667 885.333333 512 718.186667 138.666667 512 138.666667z" fill="#606060" p-id="3741" data-spm-anchor-id="a313x.7781069.0.i10" class=""></path><path d="M378.090667 264.384a32 32 0 1 1 30.72 56.149333 267.669333 267.669333 0 0 0-122.752 142.506667 32 32 0 0 1-60.117334-22.016 331.669333 331.669333 0 0 1 152.149334-176.64z m158.464-40.384a32 32 0 0 1 0 64c-12.032 0-23.957333 0.789333-35.712 2.368a32 32 0 1 1-8.490667-63.424 333.397333 333.397333 0 0 1 44.202667-2.944z" fill="#606060" p-id="3742" data-spm-anchor-id="a313x.7781069.0.i12" class=""></path><path d="M512 512m-128 0a128 128 0 1 0 256 0 128 128 0 1 0-256 0Z" p-id="3743"></path></svg>
