<?xml version="1.0" standalone="no"?><!DOCTYPE svg PUBLIC "-//W3C//DTD SVG 1.1//EN" "http://www.w3.org/Graphics/SVG/1.1/DTD/svg11.dtd"><svg t="1590461882986" class="icon" viewBox="0 0 1024 1024" version="1.1" xmlns="http://www.w3.org/2000/svg" p-id="37309" data-spm-anchor-id="a313x.7781069.0.i40" xmlns:xlink="http://www.w3.org/1999/xlink" width="24" height="24"><defs><style type="text/css"></style></defs><path d="M768 92.48A60.48 60.48 0 0 0 707.52 32H316.48A60.48 60.48 0 0 0 256 92.48V96h512zM838.72 288H185.28A57.28 57.28 0 0 0 128 345.28v589.44A57.28 57.28 0 0 0 185.28 992h653.44A57.28 57.28 0 0 0 896 934.72V345.28A57.28 57.28 0 0 0 838.72 288zM672 496a48 48 0 0 0-48 48v235.84a47.68 47.68 0 0 1 0 11.52c-7.68 56.32-69.44 99.2-147.84 99.2-83.84 0-149.44-48.64-149.44-110.72s65.6-110.72 149.44-110.72a199.68 199.68 0 0 1 53.44 7.36V544A144 144 0 0 1 672 400a48 48 0 1 1 0 96zM768 160H256a64 64 0 0 0-64 64h640a64 64 0 0 0-64-64z" fill="#ffffff" p-id="37310" data-spm-anchor-id="a313x.7781069.0.i38" class=""></path></svg>